<svg xmlns="http://www.w3.org/2000/svg" version="1.1" xmlns:xlink="http://www.w3.org/1999/xlink" xmlns:svgjs="http://svgjs.dev/svgjs" width="1440" height="560" preserveAspectRatio="none" viewBox="0 0 1440 560"><g mask="url(&quot;#SvgjsMask1000&quot;)" fill="none"><rect width="1440" height="560" x="0" y="0" fill="#0e2a47"></rect><path d="M781.25 520.02 a128.3 128.3 0 1 0 256.6 0 a128.3 128.3 0 1 0 -256.6 0z" fill="rgba(28, 83, 142, 0.4)" class="triangle-float3"></path><path d="M1016.797,269.832C1053.693,267.217,1071.822,228.861,1090.069,196.686C1107.942,165.171,1130.687,130.412,1114.148,98.177C1096.704,64.179,1054.899,50.977,1016.797,53.878C983.247,56.432,959.575,82.502,942.128,111.272C923.767,141.551,907.928,176.491,923.015,208.527C940.069,244.741,976.868,272.662,1016.797,269.832" fill="rgba(28, 83, 142, 0.4)" class="triangle-float1"></path><path d="M702.005,256.917C727.613,255.949,748.602,239.225,761.751,217.229C775.32,194.53,782.159,166.976,769.722,143.637C756.632,119.071,729.841,105.097,702.005,105.104C674.182,105.111,648.35,119.63,634.347,143.672C620.251,167.873,619.521,198.02,633.885,222.063C647.906,245.532,674.687,257.95,702.005,256.917" fill="rgba(28, 83, 142, 0.4)" class="triangle-float1"></path><path d="M407.83 172.66 a142.56 142.56 0 1 0 285.12 0 a142.56 142.56 0 1 0 -285.12 0z" fill="rgba(28, 83, 142, 0.4)" class="triangle-float1"></path><path d="M-95.47 294.08 a136.58 136.58 0 1 0 273.16 0 a136.58 136.58 0 1 0 -273.16 0z" fill="rgba(28, 83, 142, 0.4)" class="triangle-float3"></path><path d="M1305.55 3.25 a128.17 128.17 0 1 0 256.34 0 a128.17 128.17 0 1 0 -256.34 0z" fill="rgba(28, 83, 142, 0.4)" class="triangle-float1"></path></g><defs><mask id="SvgjsMask1000"><rect width="1440" height="560" fill="#ffffff"></rect></mask><style>
                @keyframes float1 {
                    0%{transform: translate(0, 0)}
                    50%{transform: translate(-10px, 0)}
                    100%{transform: translate(0, 0)}
                }

                .triangle-float1 {
                    animation: float1 5s infinite;
                }

                @keyframes float2 {
                    0%{transform: translate(0, 0)}
                    50%{transform: translate(-5px, -5px)}
                    100%{transform: translate(0, 0)}
                }

                .triangle-float2 {
                    animation: float2 4s infinite;
                }

                @keyframes float3 {
                    0%{transform: translate(0, 0)}
                    50%{transform: translate(0, -10px)}
                    100%{transform: translate(0, 0)}
                }

                .triangle-float3 {
                    animation: float3 6s infinite;
                }
            </style></defs></svg>