<svg xmlns="http://www.w3.org/2000/svg" version="1.1" xmlns:xlink="http://www.w3.org/1999/xlink" xmlns:svgjs="http://svgjs.dev/svgjs" width="1440" height="250" preserveAspectRatio="none" viewBox="0 0 1440 250"><g mask="url(&quot;#SvgjsMask1000&quot;)" fill="none"><rect width="1440" height="250" x="0" y="0" fill="#0e2a47"></rect><path d="M40 250L290 0L636.5 0L386.5 250z" fill="url(&quot;#SvgjsLinearGradient1001&quot;)"></path><path d="M278.6 250L528.6 0L717.6 0L467.6 250z" fill="url(&quot;#SvgjsLinearGradient1001&quot;)"></path><path d="M508.20000000000005 250L758.2 0L959.2 0L709.2 250z" fill="url(&quot;#SvgjsLinearGradient1001&quot;)"></path><path d="M735.8000000000001 250L985.8000000000001 0L1213.8000000000002 0L963.8000000000001 250z" fill="url(&quot;#SvgjsLinearGradient1001&quot;)"></path><path d="M1415 250L1165 0L989.5 0L1239.5 250z" fill="url(&quot;#SvgjsLinearGradient1002&quot;)"></path><path d="M1173.4 250L923.4000000000001 0L639.9000000000001 0L889.9000000000001 250z" fill="url(&quot;#SvgjsLinearGradient1002&quot;)"></path><path d="M939.8 250L689.8 0L391.29999999999995 0L641.3 250z" fill="url(&quot;#SvgjsLinearGradient1002&quot;)"></path><path d="M707.1999999999999 250L457.19999999999993 0L127.19999999999993 0L377.19999999999993 250z" fill="url(&quot;#SvgjsLinearGradient1002&quot;)"></path><path d="M1313.3676596369703 250L1440 123.36765963697022L1440 250z" fill="url(&quot;#SvgjsLinearGradient1001&quot;)"></path><path d="M0 250L126.63234036302978 250L 0 123.36765963697022z" fill="url(&quot;#SvgjsLinearGradient1002&quot;)"></path></g><defs><mask id="SvgjsMask1000"><rect width="1440" height="250" fill="#ffffff"></rect></mask><linearGradient x1="0%" y1="100%" x2="100%" y2="0%" id="SvgjsLinearGradient1001"><stop stop-color="rgba(15, 70, 185, 0.2)" offset="0"></stop><stop stop-opacity="0" stop-color="rgba(15, 70, 185, 0.2)" offset="0.66"></stop></linearGradient><linearGradient x1="100%" y1="100%" x2="0%" y2="0%" id="SvgjsLinearGradient1002"><stop stop-color="rgba(15, 70, 185, 0.2)" offset="0"></stop><stop stop-opacity="0" stop-color="rgba(15, 70, 185, 0.2)" offset="0.66"></stop></linearGradient></defs></svg>